<svg xmlns="http://www.w3.org/2000/svg" viewBox="0 0 227.2 142"><path fill="none" clip-rule="evenodd" d="M0 0h227.2v142.1H0v-.2z"/><path clip-rule="evenodd" d="M84.1 112.6c-4 0-7.4.1-7.7.1h-2c-23.4 0-42.3-18.9-42.3-42.3C32.1 49 47 32 67.5 29.2c.3 0 9.9.1 19.5.3L132.2 138h25.4l-54-132-.1-1.3C103 4.7 66 4 65.6 4 32 7.9 6.9 35.7 6.9 70.4c0 37.3 30.2 67.5 67.5 67.5 1.2 0 2.3-.1 3.4-.1H95v.1h25.4l-40-95.2H54l30.1 69.9zm94.4-82.5h-53.6L114.5 4.7h57.2v-.1h.7c27 0 48.8 21.8 48.8 48.8 0 24.2-17.7 44.4-40.8 48.2l14.9 36.3h-25.4l-25-60h31.9c11.6-1.9 20.5-11.9 20.5-24.1-.2-11.5-8.1-21.1-18.8-23.7z" fill-rule="evenodd"/></svg>